<svg xmlns="http://www.w3.org/2000/svg" width="263.921" height="324.029" viewBox="0 0 263.921 324.029">
  <g id="Group_53" data-name="Group 53" transform="matrix(0.719, 0.695, -0.695, 0.719, 186.21, -8.921)">
    <path id="Subtraction_2" data-name="Subtraction 2" d="M100.858,0h0L0,131.785c0,5.335,2.667,10.513,7.926,15.391,5.087,4.711,12.359,8.938,21.614,12.564,16.2,6.352,36.713,10.262,59.313,11.306l12.007-21.831,12.007,21.831c22.6-1.044,43.109-4.954,59.31-11.306,9.255-3.626,16.527-7.853,21.614-12.564,5.259-4.879,7.926-10.056,7.926-15.389L100.859,0Z" transform="translate(0 97.014)" fill="#e1d497"/>
    <path id="Path_1" data-name="Path 1" d="M87.377,99.777S73.153,21.828,0,0" transform="translate(13.481 0)" fill="none" stroke="#e1d497" stroke-width="1"/>
  </g>
</svg>
